<svg xmlns="http://www.w3.org/2000/svg" xml:space="preserve" viewBox="5 24.65 90 50.69"><path d="M8.959 28.656h21.177c.501 0 .834-.333.834-.834v-2.334c0-.5.333-.834.834-.834h45.021c.5 0 .834.334.834.834v2.334c0 .501.333.834.834.834h15.674c.5 0 .834.334.834.834v17.008c0 .5-.334.834-.834.834-13.174.167-16.508 3.836-16.508 11.172 0 7.504 1.334 9.172 7.17 9.338.5 0 .834.334.834.834v5.836c0 .5-.334.834-.834.834H31.804c-.501 0-.834-.334-.834-.834v-5.836c0-.5.333-.834.834-.834h1.334c4.835 0 6.003-1.834 6.003-9.338 0-11.506-28.681-12.339-33.517-25.846-1.334-3.168-.667-4.002 3.335-4.002z"/></svg>