<svg xmlns="http://www.w3.org/2000/svg" xml:space="preserve" style="enable-background:new 0 0 343.6 316.832" viewBox="0 0 343.6 316.83"><path d="m113.405 311.128 29.674-5.395c-.387-3.956.893-7.84 3.393-10.788l-24.26-5.834a14.396 14.396 0 0 1-6.754-3.767l-6.527 1.187c-6.793 1.235-11.297 7.742-10.061 14.535 1.096 6.036 6.357 10.267 12.283 10.267a12.652 12.652 0 0 0 2.252-.205z"/><path d="m120.914 229.613-7.361 41.967c-.014.085-.02.17-.031.256-.023.086-.055.167-.074.254-1.613 6.712 2.52 13.462 9.23 15.077l25.439 6.117a14.447 14.447 0 0 1 4.795-2.712l16.25-5.417.881 1.815-16.496 5.499c-6.549 2.183-10.09 9.263-7.906 15.812 1.746 5.237 6.625 8.55 11.857 8.551 1.31 0 2.643-.208 3.953-.646l19.602-6.534 11.727-3.909 4.672-1.557c4.572-1.523 7.668-5.433 8.385-9.881a12.437 12.437 0 0 0-.477-5.931c-.014-.039-.031-.075-.045-.114-1.09-4.381-4.514-8.021-9.205-9.149l-25.84-6.214-1.947-.469 5.17-29.478 2.098-11.954c1.441 2.796 3.195 5.873 5.713 8.852 2.135 2.495 4.924 4.886 8.428 6.556 3.479 1.674 7.564 2.565 12.006 2.565h.063c2.773 0 5.693-.328 8.813-.971a8 8 0 0 0 6.223-9.449 8.007 8.007 0 0 0-.879-2.331l5.531-18.635-6.654-1.974V211h-17.668v3.28l-8.41 2.796 3.65 10.988c-1.494-2.16-2.994-5.102-4.654-8.472-1.334-2.587-2.815-5.393-5.057-8.123-1.918-2.348-4.617-4.668-8.039-6.069a7.71 7.71 0 0 0-2.285-.787l-38.055-6.674c-.068-.012-.137-.016-.207-.025a13.266 13.266 0 0 0-2.285-.206c-3.357.04-6.158 1.017-8.961 2.431-4.148 2.161-8.197 5.546-11.432 10.251a31.346 31.346 0 0 0-5.5 17.799c-.006 7.737 2.766 16.102 8.873 24.689l4.168-23.76 1.941.495zM213.832 212v3.313l-9.283-2.754-5.959 20.078a14.011 14.011 0 0 1-.426-.104V212h15.668zm-6.449 20.329c-2.23.46-4.078.641-5.584.641a18.939 18.939 0 0 1-2.219-.16l5.643-19.009 15.02 4.458-5.014 16.896a7.993 7.993 0 0 0-7.846-2.826zm-10.219-.13c-.863-.349-1.563-.797-2.258-1.329a8.18 8.18 0 0 1-.732-.653l-4.156-12.508 7.147-2.376v16.866z"/><ellipse cx="294.737" cy="121.908" rx="22.495" ry="22.493" transform="rotate(-13.109 294.74 121.91)"/><path d="M258.502 216.502c.857 0 1.728-.139 2.586-.431 42.641-14.638 61.508-45.04 62.049-45.859 2.326-3.756 1.162-8.685-2.596-11.01a7.994 7.994 0 0 0-11.008 2.592h-.002l-.002.002h.002c-.564.929-17.459 26.838-53.619 39.134a7.996 7.996 0 0 0-4.982 10.155 8.006 8.006 0 0 0 7.572 5.417z"/><ellipse cx="48.863" cy="95.069" rx="22.493" ry="22.495" transform="rotate(-76.891 48.866 95.073)"/><path d="M24.528 209.557a75.468 75.468 0 0 0 1.92-.045H88.18a12.513 12.513 0 0 0 12.264-10.082c1.156-5.849-2-11.718-7.518-13.982L44.76 165.681a12.43 12.43 0 0 0-6.631-.78 243.82 243.82 0 0 1 1.152-6.701 47.944 47.944 0 0 1-9.541-5.396c-5.127-3.736-8.242-7.412-9.346-8.819-1.674-2.197-2.365-4.826-2.004-7.473a9.926 9.926 0 0 1 3.857-6.611 9.906 9.906 0 0 1 6.043-2.04 9.934 9.934 0 0 1 7.963 3.942l.15.176c.199.235.529.611.98 1.077.855.887 2.26 2.224 4.109 3.564 4.52 3.28 9.254 4.944 14.078 4.944 7.422-.05 15.008-3.734 23.215-11.264.426-.394.887-.742 1.367-1.053a54.598 54.598 0 0 1-10.377 1.001c-9.424.008-17.873-2.381-23.904-4.802a66.199 66.199 0 0 1-7.022-3.288 45.505 45.505 0 0 1-1.785-1.027l-.402-.25c-.039-.025-.061-.042-.07-.046a7.922 7.922 0 0 0-1.834-.896 10.78 10.78 0 0 0-1.932-.69c-8.537-2.129-20.912 2.508-25.947 17.15-6.805 20.174-8.268 33.305-5.682 55.52 3.131 16.103 14.167 17.755 23.331 17.638zM208.492 98.519V59.894c5.971 8.461 13.207 21.266 19.875 36.624a14.338 14.338 0 0 1 6.898 10.786 7.983 7.983 0 0 0 3.238.698 8 8 0 0 0 7.408-11.01c-7.193-17.717-15.176-32.709-22.459-43.574-3.658-5.444-7.111-9.846-10.469-13.196-1.691-1.677-3.352-3.102-5.236-4.29-1.418-.855-2.992-1.693-5.045-2.084a7.72 7.72 0 0 0-1.941-.255h-4.76c-3.566 6.994-10.391 12.056-18.463 13.172l-5.207-1.545v-.3a22.72 22.72 0 0 0 1.836.081c12.428 0 22.5-10.072 22.5-22.5 0-12.426-10.072-22.5-22.5-22.5-12.426 0-22.5 10.074-22.5 22.5 0 7.462 3.635 14.072 9.229 18.166h-3.15a24.684 24.684 0 0 1-4.057-4.74c-7.098 2.985-12.816 8.08-17.104 13.595-2.846 3.688-5.096 7.631-6.695 11.602-1.582 3.983-2.563 7.968-2.58 12.04 0 .289.006.631.025 1.014 0 .012-.002.023 0 .035l.002.043c.002.014.002.025.002.039l.006.05c.178 3.312 1.113 6.971 3.836 10.063 2.672 3.093 6.926 4.696 10.803 4.696.096 0 .193-.001.289-.003.084-.001.166-.008.25-.01 6.215-.17 12.203-2.79 19.662-7.543a7.998 7.998 0 0 0 2.359-11.064 7.997 7.997 0 0 0-11.063-2.36c-4.051 2.681-7.23 4.027-9.193 4.609-.363.107-.697.197-.975.255.02-1.31.447-3.5 1.424-5.898.406-1.019.91-2.076 1.486-3.138l1.701 5.12c.287-.146.588-.305.898-.472l-5.809-17.47 11.65-3.874v18.115c.328-.11.66-.196.998-.272V41.667h15.668v3.255l-4.033-1.197-6.41 21.603c.318.103.633.217.938.35l6.146-20.71 15.021 4.458-7.303 24.607-8.43-2.502a9.928 9.928 0 0 1 .352 5.389 9.919 9.919 0 0 1-4.342 6.304c-3.275 2.087-6.182 3.709-8.873 4.924v15.82l27.232 5.862 26.865-11.311zM191.383 139.27c6.322 1.361 12.545-2.378 14.41-8.443l-18.141 7.64 3.731.803zM133.647 126.843l18.596 4.002c.346-5.26 3.566-10.142 8.744-12.32l17.43-7.341-39.566-8.517c-6.678-1.438-13.25 2.812-14.688 9.487-1.436 6.674 2.806 13.251 9.484 14.689z"/><path d="M161.762 120.368c-6.297 2.651-9.246 9.902-6.598 16.194 2.65 6.292 9.9 9.247 16.195 6.596l54.43-22.921c6.295-2.651 9.244-9.901 6.596-16.192-2.65-6.293-9.898-9.249-16.193-6.598l-54.43 22.921zM83.106 127.968l3.352-13.675 7.769 1.905-3.207 13.086c.303.197.594.408.873.637l3.545-14.456-1.059-.259 1.652-2.995 7.004 3.865-8.984 16.286c.209.337.402.683.568 1.038l7.932-14.374 5.408 3.597-13.287 19.985-.313-.208c-.158.292-.33.578-.517.855l1.111.74.275-.417 14.119-21.236-6.313-4.195 1.359-2.464-8.756-4.83-2.266 4.105-7.65-1.874-3.732 15.228c.365-.137.74-.248 1.117-.344zM244.092 123.675l-9.389 3.444 1.615 4.403-6.432 4.545 11.215 15.865a7.986 7.986 0 0 0 3.434 6.986l30.75 21.25a7.986 7.986 0 0 0 8.762.217l15.691-9.723c5.381-5.686 8.021-9.803 8.084-9.904 1.846-2.985 5.027-4.757 8.52-4.757 1.853 0 3.67.518 5.254 1.498 4.688 2.903 6.141 9.077 3.242 13.765l-.072.114c-2.109 3.276-21.785 32.425-63.029 46.583a9.995 9.995 0 0 1-3.234.541 9.992 9.992 0 0 1-8.998-5.657c-4.783 2.569-7.422 8.002-6.352 13.424a12.514 12.514 0 0 0 12.266 10.081h61.734c.613.022 1.252.037 1.92.045 9.164.117 20.199-1.535 23.328-17.637 2.586-22.215 1.123-35.346-5.682-55.52-5.035-14.643-17.41-19.279-25.947-17.15-.16.04-.314.09-.471.137a7.966 7.966 0 0 0-3.348 1.145h-.002l-26.879 16.655-21.092-14.575.297-.082-.133-.484-6.777-24.584-7.307 2.016-.968-2.641zm8.094 26.611-1.057-1.497 1.916-.703-.172-.47-7.467-20.357 6.264-1.727 6.379 23.137-5.863 1.617zM243.5 124.96l8.262 22.532-1.23.452-12.477-17.648-.891.629-1.178-3.209 7.514-2.756zm-5.685 6.729 13.854 19.597-6.533 4.618-13.852-19.597 6.531-4.618z"/><path d="M40.319 138.242a33.914 33.914 0 0 1-4.373-3.794 23.794 23.794 0 0 1-1.063-1.17c-.109-.128-.184-.216-.219-.262l-.002.001a7.997 7.997 0 0 0-11.203-1.522 8.001 8.001 0 0 0-1.529 11.211c.324.409 3.359 4.381 8.986 8.483 5.592 4.066 14.019 8.367 24.695 8.378l.147.001c10.719 0 22.969-4.626 35.24-16.037a8 8 0 1 0-10.858-11.752c-10.27 9.417-18.27 11.746-24.529 11.788-6.226.008-11.454-2.541-15.292-5.325z"/><ellipse cx="158.215" cy="173.502" rx="22.5" ry="22.499" transform="rotate(-80.055 158.202 173.496)"/><path d="M105 180.5c4.281 0 7.75-2.015 7.75-4.5s-3.469-4.5-7.75-4.5c-.068 0-.133.005-.201.006.129-.324.201-.66.201-1.006 0-2.485-3.469-4.5-7.75-4.5-4.279 0-7.75 2.015-7.75 4.5s3.471 4.5 7.75 4.5c.068 0 .135-.005.201-.006-.127.324-.201.66-.201 1.006 0 2.485 3.471 4.5 7.75 4.5z"/><ellipse cx="114" cy="164" rx="7.75" ry="4.5"/><ellipse cx="112.75" cy="188" rx="7.75" ry="4.5"/><path d="M234.75 188c0 2.485 3.471 4.5 7.75 4.5 4.281 0 7.75-2.015 7.75-4.5 0-.263-.047-.52-.121-.771 2.984-.626 5.121-2.28 5.121-4.229 0-2.485-3.469-4.5-7.75-4.5-4.279 0-7.75 2.015-7.75 4.5 0 .263.047.52.123.771-2.984.626-5.123 2.28-5.123 4.229z"/><ellipse cx="228" cy="177" rx="7.75" ry="4.5"/><ellipse cx="212" cy="144.5" rx="7.75" ry="4.5"/><path d="M210.75 258.5c-4.279 0-7.75 2.014-7.75 4.5 0 .36.082.708.219 1.044-3.791.293-6.719 2.173-6.719 4.456 0 2.484 3.471 4.5 7.75 4.5 4.281 0 7.75-2.016 7.75-4.5 0-.36-.08-.709-.217-1.044 3.791-.294 6.717-2.175 6.717-4.456 0-2.486-3.468-4.5-7.75-4.5z"/><ellipse cx="187" cy="260.5" rx="7.75" ry="4.5"/></svg>