<svg xmlns="http://www.w3.org/2000/svg" xml:space="preserve" viewBox="0 0 100 125"><path fill-rule="evenodd" d="M71.599 66.795H45.201c-6.627 0-12-5.373-12-12v-26.39c0-6.627 5.372-12 12-12H71.6c6.628 0 12 5.373 12 12v26.389c0 6.628-5.373 12.001-12.001 12.001zm4.832-38.359a4.8 4.8 0 0 0-4.8-4.8H45.222a4.8 4.8 0 0 0-4.8 4.8v26.402a4.8 4.8 0 0 0 4.8 4.8h26.409a4.8 4.8 0 0 0 4.8-4.8V28.436zm-7.22 16.813h-7.246v7.193a2.377 2.377 0 0 1-2.377 2.377h-2.4a2.377 2.377 0 0 1-2.377-2.377v-7.193h-7.246a2.376 2.376 0 0 1-2.376-2.377v-2.454a2.377 2.377 0 0 1 2.376-2.377h7.246v-7.246a2.377 2.377 0 0 1 2.377-2.377h2.4a2.377 2.377 0 0 1 2.377 2.377v7.246h7.246a2.377 2.377 0 0 1 2.377 2.377v2.454a2.377 2.377 0 0 1-2.377 2.377zM28.422 76.438h21.556a4.796 4.796 0 0 0 4.792-4.722h7.217C61.92 78.286 56.585 83.595 50 83.595H28.401c-6.627 0-12-5.373-12-12V50.006c0-6.625 5.369-11.995 11.993-11.999v7.287a4.798 4.798 0 0 0-4.771 4.797v21.548a4.798 4.798 0 0 0 4.799 4.799z" clip-rule="evenodd"/></svg>