<svg xmlns="http://www.w3.org/2000/svg" viewBox="0 0 24 24"><path d="M23.49 4.74A5.028 5.028 0 0 0 19.22.51a51.645 51.645 0 0 0-14.48 0A5.028 5.028 0 0 0 .51 4.78a51.644 51.644 0 0 0 0 14.48 5.028 5.028 0 0 0 4.27 4.23A51.34 51.34 0 0 0 12 24a51.8 51.8 0 0 0 7.26-.51 5.028 5.028 0 0 0 4.23-4.27A51.34 51.34 0 0 0 24 12a51.8 51.8 0 0 0-.51-7.26ZM19 14.816V19a1 1 0 0 1-2 0v-4.184a2.982 2.982 0 0 1 0-5.632V5a1 1 0 0 1 2 0v4.184a2.982 2.982 0 0 1 0 5.632ZM3 9a2.995 2.995 0 0 1 2-2.816V5a1 1 0 0 1 2 0v1.184a2.982 2.982 0 0 1 0 5.632V19a1 1 0 0 1-2 0v-7.184A2.995 2.995 0 0 1 3 9Zm6 8a2.995 2.995 0 0 1 2-2.816V5a1 1 0 0 1 2 0v9.184A2.995 2.995 0 1 1 9 17Z"/><circle cx="6" cy="9" r="1"/><circle cx="18" cy="12" r="1"/><circle cx="12" cy="17" r="1"/></svg>