<svg xmlns="http://www.w3.org/2000/svg" xml:space="preserve" style="enable-background:new 0 0 100 100" viewBox="2.5 6.5 95 87"><switch><g><path d="M89.1 79.6H63.5c-3.2 5.8-7.9 10.7-13.7 13.9h39.3c2.5 0 4.5-2 4.5-4.5v-4.9c0-2.5-2.1-4.5-4.5-4.5zM93 61.3H67.6V63c0 4.3-.8 8.4-2.2 12.1H93c2.5 0 4.5-2 4.5-4.5v-4.9c0-2.4-2-4.4-4.5-4.4zM89.1 56.9c2.5 0 4.5-2 4.5-4.5v-4.9c0-2.5-2-4.5-4.5-4.5H61.3c2.9 4.1 4.9 8.8 5.8 13.9h22zM93 24.8H48c-2.5 0-4.5 2-4.5 4.5v.7c5.4 1.7 10.2 4.7 14.1 8.7H93c2.5 0 4.5-2 4.5-4.5v-4.9c0-2.5-2-4.5-4.5-4.5zM44.1 20.4h45c2.5 0 4.5-2 4.5-4.5V11c0-2.5-2-4.5-4.5-4.5h-45c-2.5 0-4.5 2-4.5 4.5v4.9c.1 2.5 2.1 4.5 4.5 4.5zM63.3 63.1c0-16.8-13.6-30.4-30.4-30.4-16.7 0-30.4 13.6-30.4 30.4 0 16.8 13.6 30.4 30.4 30.4 16.8 0 30.4-13.7 30.4-30.4zM52 44c2.5 2.5 4.5 5.4 5.8 8.7l-5.3 2.2c-1.1-2.6-2.6-4.9-4.6-6.9l4.1-4zm-29.4-5.9 2.2 5.3c-2.6 1.1-4.9 2.6-6.9 4.6l-4.1-4c2.5-2.5 5.5-4.5 8.8-5.9zM8 52.7l5.3 2.2c-1 2.5-1.6 5.2-1.6 8.1H5.9c0-3.6.8-7.1 2.1-10.3zm5.8 29.4c-2.5-2.5-4.5-5.4-5.8-8.8l5.3-2.2c1.1 2.6 2.7 4.9 4.6 6.9l-4.1 4.1zM32.9 90c-3.6 0-7.1-.7-10.3-2.1l2.2-5.3c2.5 1 5.2 1.6 8.1 1.6V90zm0-48.2v-5.7c3.7 0 7.1.7 10.3 2.1L41 43.4c-2.5-1-5.2-1.6-8.1-1.6zM43.2 88 41 82.7c2.6-1.1 4.9-2.6 6.9-4.6l4.1 4.1c-2.5 2.4-5.5 4.4-8.8 5.8zm10.9-24.9h5.7c0 3.6-.7 7.1-2.1 10.3l-5.3-2.2c1.2-2.5 1.7-5.3 1.7-8.1z"/></g></switch></svg>