<svg xmlns="http://www.w3.org/2000/svg" xml:space="preserve" style="enable-background:new 0 0 357.705 264.075" viewBox="0 0 357.71 264.07"><path d="m187.654 20.073.431 1.953-1.952.432-.772.17-.128.619-.759 3.672 6.468 2.587 7.796-19.5-13.464-5.383-.664 1.661zM97.148 139.23a9.969 9.969 0 0 1-4.409 2.302 58.68 58.68 0 0 0 7.584.515h.034c6.667 0 13.8-1.208 21.083-4.021l-5.783-7.758-5.061-1.803-1.883-.67.672-1.885.343-.961a41.348 41.348 0 0 1-9.405 1.096c-.217.001-.43-.012-.645-.015l.649 4.279a9.973 9.973 0 0 1-3.179 8.921zM61.854 143.79h163.863v17.144H61.854zM77.388 92.971a9.928 9.928 0 0 1 6.553-3.959c.499-.075 1.01-.113 1.513-.113 4.896 0 9.141 3.651 9.875 8.498l2.369 15.597a22.413 22.413 0 0 0 9.539-13.679c2.817-12.1-4.708-24.191-16.808-27.008-12.1-2.818-24.193 4.707-27.011 16.805-2.627 11.281 3.738 22.554 14.419 26.311l-2.281-15.021a9.93 9.93 0 0 1 1.832-7.431z"/><path d="M86.274 168.148H50.948c2.131-11.88 6.569-23.797 10.19-33.547l-14.661-3.77c-5.342-1.374-8.566-6.838-7.194-12.178a9.99 9.99 0 0 1 12.175-7.194l21.062 5.416a66.984 66.984 0 0 1-7.495-5.786 48.016 48.016 0 0 1-2.074-1.967c-.226-.224-.387-.395-.482-.494-.049-.049-.078-.086-.094-.101v.001a8.008 8.008 0 0 0-1.734-1.438c-.977-.954-2.095-1.748-3.39-2.295-8.104-3.423-21.048-.753-28.284 12.936-9.84 18.881-13.313 31.628-14.19 53.975.571 15.54 10.171 19.345 18.897 20.807a12.46 12.46 0 0 0 3.916.635v-.002h.973c1.236.1 2.357.115 3.369 0h27.814L59.08 230.824c-1.881 6.645 1.979 13.552 8.622 15.436 1.139.322 2.285.476 3.412.476 5.453 0 10.465-3.594 12.022-9.098l15.165-53.586a12.472 12.472 0 0 0-2.059-10.943 12.466 12.466 0 0 0-9.968-4.961z"/><path d="M50.96 113.398a8 8 0 1 0-3.984 15.495l41.473 10.665c.654.168 1.32.251 1.981.251a8.034 8.034 0 0 0 5.377-2.064 8.03 8.03 0 0 0 2.544-7.137l-5-32.915a7.997 7.997 0 0 0-9.111-6.705 7.996 7.996 0 0 0-6.705 9.11l3.181 20.949-29.756-7.649zM3.295 196.481 0 260.232h10.845l.877-16.983h31.332l.877 16.983h10.845l-3.294-63.75H3.295zm8.706 41.352 1.577-30.521h27.619l1.577 30.521H12.001zM306.225 196.481l-3.295 63.75h10.845l.877-16.983h31.332l.877 16.983h10.845l-3.294-63.75h-48.187zm8.706 41.352 1.577-30.521h27.619l1.577 30.521h-30.773zM185.654 136.382h14v3h-14zM185.654 131.382h14v3h-14zM185.654 126.382h14v3h-14zM169.321 136.382h14v3h-14zM169.321 131.382h14v3h-14zM169.321 126.382h14v3h-14zM185.654 121.382h14v3h-14zM185.654 116.549h14v3h-14zM185.654 111.549h14v3h-14zM185.654 106.549h14v3h-14zM185.654 101.549h14v3h-14zM202.404 136.382h14v3h-14zM202.404 131.382h14v3h-14zM202.404 126.007h14v3h-14zM202.404 121.007h14v3h-14zM202.404 115.632h14v3h-14zM202.404 110.632h14v3h-14zM183.681 20.884l.158.033 1.861-.411v-.002L181.176 0h-.002l-14.155 3.127 3.306 14.993zM159.773 32.778l2.937-14.2 20.566 4.254-2.938 14.2zM134.532 110.453l-.672 1.885-.125.352 1.094 1.467 4.609 6.184 5.702-6.673-11.022-9.42-3.97 4.645 2.501.89zM133.226 115.352l-.598.445-5.818 16.322-.672 1.884-1.883-.672-5.199-1.852 6.001 8.049 16.835-12.551z"/><path d="m111.268 126.57 7.05-19.782 13.66 4.867-7.05 19.782zM348.894 31.415a8 8 0 0 0-11.222-11.404L279.179 77.59h-32.364l-52.342-51.523-1.672 4.18-.742 1.857-1.857-.741-6.138-2.454-1.608 7.78 53.496 52.658v162.364c0 6.83 5.537 12.363 12.363 12.363 6.828 0 12.365-5.533 12.365-12.363V161.44h4.635v90.271c0 6.83 5.537 12.363 12.363 12.363 6.828 0 12.365-5.533 12.365-12.363V89.345l58.851-57.93z"/><circle cx="262.996" cy="49.393" r="22.5"/></svg>