<svg xmlns="http://www.w3.org/2000/svg" xml:space="preserve" viewBox="5.75 1.75 20.5 28.5"><path d="M24.97 1.75H7.03c-.7 0-1.28.58-1.28 1.28v25.94c0 .7.58 1.28 1.28 1.28h17.94c.7 0 1.28-.58 1.28-1.28V3.03c0-.7-.58-1.28-1.28-1.28zM20 20.6c-.8 0-1.72-.28-2.5-.77l.67 3.76c.02.03.03.08.03.12 0 .14-.11.25-.25.25h-3.89c-.07 0-.14-.04-.19-.09a.227.227 0 0 1-.05-.21l.71-3.85c-.79.5-1.71.79-2.53.79-1.83 0-3.31-1.48-3.31-3.31s1.48-3.31 3.31-3.31c.46 0 .95.09 1.45.26-.46-.96-.76-2.07-.76-2.89 0-1.82 1.48-3.31 3.31-3.31s3.31 1.49 3.31 3.31c0 .82-.3 1.93-.76 2.89.5-.17.99-.26 1.45-.26 1.83 0 3.31 1.48 3.31 3.31S21.83 20.6 20 20.6z"/></svg>