<svg xmlns="http://www.w3.org/2000/svg" xml:space="preserve" style="enable-background:new 0 0 153.16 300.905" viewBox="-0.12 -0.17 153.91 301.08"><path d="m90.022 99.246-2.972.396c2.317 17.465 2.64 67.307 2.66 88.267h3c-.026-21.015-.324-70.736-2.688-88.663zM105.202 187.016c.499-10.469 1.495-24.43 3.486-38.359l-2.969-.425c-2.077 14.538-3.078 29.04-3.563 39.677h3.004l.042-.893zM63.115 94.937l-2.822 1.015c6.94 19.326 11.938 44.899 15.179 65.6a726.403 726.403 0 0 1 3.586 26.039l.037.318h3.02c-2.287-19.398-8.302-63.141-19-92.972zM16.886 50.207l-2.397 1.805c31.79 42.253 47.981 88.14 56.213 123.464a368.038 368.038 0 0 1 2.671 12.433h3.06c-7.187-36.827-23.321-89.526-59.547-137.702z"/><circle cx="7" cy="55.004" r="7" transform="rotate(-.945 7.018 55.119)"/><ellipse cx="23.07" cy="43.987" rx="7" ry="6.999" transform="rotate(-.945 23.014 43.875)"/><circle cx="37.914" cy="14.657" r="7"/><circle cx="58.624" cy="7" r="7" transform="rotate(-88.596 58.622 7.001)"/><circle cx="17.73" cy="68.829" r="5.5" transform="rotate(-.945 17.753 68.916)"/><circle cx="32.342" cy="60.336" r="5.5" transform="rotate(-.951 32.343 60.335)"/><circle cx="25.67" cy="80.199" r="4.5" transform="rotate(-.951 25.672 80.207)"/><ellipse cx="66.779" cy="34.67" rx="4.499" ry="4.5" transform="rotate(-88.59 66.777 34.67)"/><circle cx="40.31" cy="73.456" r="4.5" transform="rotate(-.945 40.303 73.442)"/><circle cx="52.161" cy="39.269" r="4.5" transform="rotate(-88.585 52.16 39.269)"/><path d="m48.737 8.722-2.685 1.341c31.755 63.692 37.482 142.005 38.311 177.846h2.996c-.832-36.026-6.513-114.705-38.622-179.187zM98.744 177.054c-.016-35.862 3.03-94.635 20.21-133.796l-2.746-1.2c-17.505 40.007-20.449 98.939-20.465 134.996 0 3.907.036 7.54.092 10.854h3.001c-.057-3.316-.093-6.94-.092-10.854zM138.559 108.636l-2.487-1.676c-19.11 28.362-25.784 63.934-27.997 80.948h3.024c2.231-16.932 8.924-51.828 27.46-79.272zM67.989 190.658v110.247h52.592V190.658z"/><circle cx="46.565" cy="27.878" r="5.5" transform="rotate(-88.59 46.565 27.878)"/><circle cx="62.464" cy="22.017" r="5.5" transform="rotate(-88.59 62.464 22.017)"/><circle cx="107.831" cy="40.158" r="7"/><circle cx="126.581" cy="46.158" r="7"/><circle cx="103.956" cy="54.408" r="5.5"/><circle cx="119.768" cy="60.221" r="5.5"/><circle cx="101.456" cy="66.783" r="4.5"/><circle cx="115.456" cy="72.033" r="4.5"/><ellipse cx="128.372" cy="102.419" rx="7" ry="7.001" transform="rotate(-84.503 128.378 102.418)"/><circle cx="146.16" cy="112.46" r="7" transform="rotate(-84.503 146.153 112.46)"/><ellipse cx="121.223" cy="116.304" rx="5.5" ry="5.499" transform="rotate(-84.503 121.223 116.304)"/><ellipse cx="137.195" cy="124.843" rx="5.5" ry="5.501" transform="rotate(-84.508 137.196 124.844)"/><circle cx="117.091" cy="128.512" r="4.5" transform="rotate(-84.497 117.089 128.51)"/><circle cx="131.537" cy="136.111" r="4.5" transform="rotate(-84.508 131.536 136.113)"/></svg>